<svg width="182" height="56" viewBox="0 0 182 56" fill="none" xmlns="http://www.w3.org/2000/svg">
<path fill-rule="evenodd" clip-rule="evenodd" d="M2.5 0.5H179.5C180.6 0.5 181.5 1.4 181.5 2.5V53.5C181.5 54.6 180.6 55.5 179.5 55.5H2.5C1.4 55.5 0.5 54.6 0.5 53.5V2.5C0.5 1.4 1.4 0.5 2.5 0.5Z" fill="white" stroke="#CDCDCD"/>
<path d="M27 28.8V18.3L34.2 21.5L27 28.8ZM13.2 42.6L22.1 26L26 29.9L13.2 42.6ZM8.20001 11.2L26.4 17.8V29.4L8.20001 11.2Z" fill="#82BEA0"/>
<path d="M37.9 17.8H27.4L40.9 23.9L37.9 17.8Z" fill="#FA6441"/>
<path d="M51.74 11.14H52.364C52.628 11.14 52.896 11.12 53.168 11.08C53.44 11.04 53.688 10.968 53.912 10.864C54.136 10.752 54.32 10.604 54.464 10.42C54.608 10.236 54.68 10.004 54.68 9.724C54.68 9.364 54.524 9.072 54.212 8.848C53.908 8.616 53.5 8.5 52.988 8.5C52.548 8.5 52.152 8.552 51.8 8.656C51.448 8.752 51.188 8.852 51.02 8.956L50.648 8.008C50.744 7.944 50.872 7.884 51.032 7.828C51.2 7.764 51.384 7.708 51.584 7.66C51.792 7.612 52.016 7.576 52.256 7.552C52.496 7.52 52.744 7.504 53 7.504C53.416 7.504 53.8 7.548 54.152 7.636C54.504 7.724 54.808 7.86 55.064 8.044C55.32 8.22 55.52 8.448 55.664 8.728C55.808 9 55.88 9.324 55.88 9.7C55.88 10.084 55.756 10.444 55.508 10.78C55.268 11.116 54.912 11.36 54.44 11.512C54.68 11.576 54.908 11.668 55.124 11.788C55.348 11.9 55.54 12.048 55.7 12.232C55.868 12.408 56 12.616 56.096 12.856C56.2 13.096 56.252 13.376 56.252 13.696C56.252 14.136 56.168 14.516 56 14.836C55.84 15.148 55.612 15.404 55.316 15.604C55.028 15.804 54.676 15.948 54.26 16.036C53.844 16.132 53.384 16.18 52.88 16.18C52.576 16.18 52.288 16.156 52.016 16.108C51.744 16.068 51.5 16.02 51.284 15.964C51.068 15.9 50.88 15.832 50.72 15.76C50.56 15.688 50.436 15.628 50.348 15.58L50.696 14.62C50.784 14.668 50.9 14.724 51.044 14.788C51.196 14.852 51.364 14.912 51.548 14.968C51.732 15.024 51.936 15.072 52.16 15.112C52.384 15.152 52.62 15.172 52.868 15.172C53.548 15.172 54.076 15.06 54.452 14.836C54.836 14.604 55.028 14.216 55.028 13.672C55.028 13.352 54.96 13.092 54.824 12.892C54.696 12.684 54.516 12.52 54.284 12.4C54.06 12.28 53.792 12.2 53.48 12.16C53.176 12.112 52.844 12.088 52.484 12.088H51.74V11.14ZM59.9392 15.196C60.2032 15.196 60.4352 15.192 60.6352 15.184C60.8432 15.168 61.0152 15.144 61.1512 15.112V13.252C61.0712 13.212 60.9392 13.18 60.7552 13.156C60.5792 13.124 60.3632 13.108 60.1072 13.108C59.9392 13.108 59.7592 13.12 59.5672 13.144C59.3832 13.168 59.2112 13.22 59.0512 13.3C58.8992 13.372 58.7712 13.476 58.6672 13.612C58.5632 13.74 58.5112 13.912 58.5112 14.128C58.5112 14.528 58.6392 14.808 58.8952 14.968C59.1512 15.12 59.4992 15.196 59.9392 15.196ZM59.8432 9.604C60.2912 9.604 60.6672 9.664 60.9712 9.784C61.2832 9.896 61.5312 10.06 61.7152 10.276C61.9072 10.484 62.0432 10.736 62.1232 11.032C62.2032 11.32 62.2432 11.64 62.2432 11.992V15.892C62.1472 15.908 62.0112 15.932 61.8352 15.964C61.6672 15.988 61.4752 16.012 61.2592 16.036C61.0432 16.06 60.8072 16.08 60.5512 16.096C60.3032 16.12 60.0552 16.132 59.8072 16.132C59.4552 16.132 59.1312 16.096 58.8352 16.024C58.5392 15.952 58.2832 15.84 58.0672 15.688C57.8512 15.528 57.6832 15.32 57.5632 15.064C57.4432 14.808 57.3832 14.5 57.3832 14.14C57.3832 13.796 57.4512 13.5 57.5872 13.252C57.7312 13.004 57.9232 12.804 58.1632 12.652C58.4032 12.5 58.6832 12.388 59.0032 12.316C59.3232 12.244 59.6592 12.208 60.0112 12.208C60.1232 12.208 60.2392 12.216 60.3592 12.232C60.4792 12.24 60.5912 12.256 60.6952 12.28C60.8072 12.296 60.9032 12.312 60.9832 12.328C61.0632 12.344 61.1192 12.356 61.1512 12.364V12.052C61.1512 11.868 61.1312 11.688 61.0912 11.512C61.0512 11.328 60.9792 11.168 60.8752 11.032C60.7712 10.888 60.6272 10.776 60.4432 10.696C60.2672 10.608 60.0352 10.564 59.7472 10.564C59.3792 10.564 59.0552 10.592 58.7752 10.648C58.5032 10.696 58.2992 10.748 58.1632 10.804L58.0312 9.88C58.1752 9.816 58.4152 9.756 58.7512 9.7C59.0872 9.636 59.4512 9.604 59.8432 9.604ZM65.1887 15.16C65.2367 15.168 65.3047 15.176 65.3927 15.184C65.4807 15.192 65.5807 15.2 65.6927 15.208C65.8047 15.208 65.9207 15.212 66.0407 15.22C66.1687 15.22 66.2887 15.22 66.4007 15.22C66.6327 15.22 66.8527 15.204 67.0607 15.172C67.2767 15.14 67.4607 15.084 67.6127 15.004C67.7727 14.924 67.8967 14.82 67.9847 14.692C68.0807 14.556 68.1287 14.384 68.1287 14.176C68.1287 13.976 68.0847 13.812 67.9967 13.684C67.9167 13.548 67.8047 13.44 67.6607 13.36C67.5167 13.28 67.3447 13.224 67.1447 13.192C66.9527 13.16 66.7447 13.144 66.5207 13.144H65.1887V15.16ZM66.3767 12.316C66.5927 12.316 66.7887 12.304 66.9647 12.28C67.1487 12.248 67.3047 12.196 67.4327 12.124C67.5687 12.052 67.6727 11.956 67.7447 11.836C67.8247 11.716 67.8647 11.564 67.8647 11.38C67.8647 11.188 67.8167 11.036 67.7207 10.924C67.6247 10.812 67.4967 10.728 67.3367 10.672C67.1847 10.608 67.0087 10.568 66.8087 10.552C66.6167 10.528 66.4207 10.516 66.2207 10.516C66.0367 10.516 65.8487 10.52 65.6567 10.528C65.4727 10.536 65.3167 10.544 65.1887 10.552V12.316H66.3767ZM66.3527 16.108C65.8807 16.108 65.4447 16.084 65.0447 16.036C64.6447 15.996 64.3287 15.948 64.0967 15.892V9.82C64.3287 9.764 64.6447 9.716 65.0447 9.676C65.4447 9.628 65.8807 9.604 66.3527 9.604C66.6807 9.604 67.0007 9.632 67.3127 9.688C67.6247 9.744 67.9007 9.84 68.1407 9.976C68.3807 10.104 68.5727 10.284 68.7167 10.516C68.8687 10.74 68.9447 11.02 68.9447 11.356C68.9447 11.66 68.8687 11.92 68.7167 12.136C68.5647 12.352 68.3607 12.52 68.1047 12.64C68.4487 12.76 68.7207 12.94 68.9207 13.18C69.1287 13.412 69.2327 13.74 69.2327 14.164C69.2327 14.54 69.1567 14.852 69.0047 15.1C68.8607 15.348 68.6567 15.548 68.3927 15.7C68.1367 15.852 67.8327 15.956 67.4807 16.012C67.1287 16.076 66.7527 16.108 66.3527 16.108ZM72.7829 15.196C73.0469 15.196 73.2789 15.192 73.4789 15.184C73.6869 15.168 73.8589 15.144 73.9949 15.112V13.252C73.9149 13.212 73.7829 13.18 73.5989 13.156C73.4229 13.124 73.2069 13.108 72.9509 13.108C72.7829 13.108 72.6029 13.12 72.4109 13.144C72.2269 13.168 72.0549 13.22 71.8949 13.3C71.7429 13.372 71.6149 13.476 71.5109 13.612C71.4069 13.74 71.3549 13.912 71.3549 14.128C71.3549 14.528 71.4829 14.808 71.7389 14.968C71.9949 15.12 72.3429 15.196 72.7829 15.196ZM72.6869 9.604C73.1349 9.604 73.5109 9.664 73.8149 9.784C74.1269 9.896 74.3749 10.06 74.5589 10.276C74.7509 10.484 74.8869 10.736 74.9669 11.032C75.0469 11.32 75.0869 11.64 75.0869 11.992V15.892C74.9909 15.908 74.8549 15.932 74.6789 15.964C74.5109 15.988 74.3189 16.012 74.1029 16.036C73.8869 16.06 73.6509 16.08 73.3949 16.096C73.1469 16.12 72.8989 16.132 72.6509 16.132C72.2989 16.132 71.9749 16.096 71.6789 16.024C71.3829 15.952 71.1269 15.84 70.9109 15.688C70.6949 15.528 70.5269 15.32 70.4069 15.064C70.2869 14.808 70.2269 14.5 70.2269 14.14C70.2269 13.796 70.2949 13.5 70.4309 13.252C70.5749 13.004 70.7669 12.804 71.0069 12.652C71.2469 12.5 71.5269 12.388 71.8469 12.316C72.1669 12.244 72.5029 12.208 72.8549 12.208C72.9669 12.208 73.0829 12.216 73.2029 12.232C73.3229 12.24 73.4349 12.256 73.5389 12.28C73.6509 12.296 73.7469 12.312 73.8269 12.328C73.9069 12.344 73.9629 12.356 73.9949 12.364V12.052C73.9949 11.868 73.9749 11.688 73.9349 11.512C73.8949 11.328 73.8229 11.168 73.7189 11.032C73.6149 10.888 73.4709 10.776 73.2869 10.696C73.1109 10.608 72.8789 10.564 72.5909 10.564C72.2229 10.564 71.8989 10.592 71.6189 10.648C71.3469 10.696 71.1429 10.748 71.0069 10.804L70.8749 9.88C71.0189 9.816 71.2589 9.756 71.5949 9.7C71.9309 9.636 72.2949 9.604 72.6869 9.604ZM82.0525 16H80.9365V13.24H78.0565V16H76.9405V9.76H78.0565V12.304H80.9365V9.76H82.0525V16ZM88.3757 9.76V10.696H86.3477V16H85.2317V10.696H83.2037V9.76H88.3757ZM91.6384 15.196C91.9024 15.196 92.1344 15.192 92.3344 15.184C92.5424 15.168 92.7144 15.144 92.8504 15.112V13.252C92.7704 13.212 92.6384 13.18 92.4544 13.156C92.2784 13.124 92.0624 13.108 91.8064 13.108C91.6384 13.108 91.4584 13.12 91.2664 13.144C91.0824 13.168 90.9104 13.22 90.7504 13.3C90.5984 13.372 90.4704 13.476 90.3664 13.612C90.2624 13.74 90.2104 13.912 90.2104 14.128C90.2104 14.528 90.3384 14.808 90.5944 14.968C90.8504 15.12 91.1984 15.196 91.6384 15.196ZM91.5424 9.604C91.9904 9.604 92.3664 9.664 92.6704 9.784C92.9824 9.896 93.2304 10.06 93.4144 10.276C93.6064 10.484 93.7424 10.736 93.8224 11.032C93.9024 11.32 93.9424 11.64 93.9424 11.992V15.892C93.8464 15.908 93.7104 15.932 93.5344 15.964C93.3664 15.988 93.1744 16.012 92.9584 16.036C92.7424 16.06 92.5064 16.08 92.2504 16.096C92.0024 16.12 91.7544 16.132 91.5064 16.132C91.1544 16.132 90.8304 16.096 90.5344 16.024C90.2384 15.952 89.9824 15.84 89.7664 15.688C89.5504 15.528 89.3824 15.32 89.2624 15.064C89.1424 14.808 89.0824 14.5 89.0824 14.14C89.0824 13.796 89.1504 13.5 89.2864 13.252C89.4304 13.004 89.6224 12.804 89.8624 12.652C90.1024 12.5 90.3824 12.388 90.7024 12.316C91.0224 12.244 91.3584 12.208 91.7104 12.208C91.8224 12.208 91.9384 12.216 92.0584 12.232C92.1784 12.24 92.2904 12.256 92.3944 12.28C92.5064 12.296 92.6024 12.312 92.6824 12.328C92.7624 12.344 92.8184 12.356 92.8504 12.364V12.052C92.8504 11.868 92.8304 11.688 92.7904 11.512C92.7504 11.328 92.6784 11.168 92.5744 11.032C92.4704 10.888 92.3264 10.776 92.1424 10.696C91.9664 10.608 91.7344 10.564 91.4464 10.564C91.0784 10.564 90.7544 10.592 90.4744 10.648C90.2024 10.696 89.9984 10.748 89.8624 10.804L89.7304 9.88C89.8744 9.816 90.1144 9.756 90.4504 9.7C90.7864 9.636 91.1504 9.604 91.5424 9.604ZM103.488 9.76C103.328 9.96 103.148 10.18 102.948 10.42C102.748 10.652 102.54 10.896 102.324 11.152C102.108 11.4 101.888 11.648 101.664 11.896C101.448 12.144 101.24 12.38 101.04 12.604C101.28 12.836 101.528 13.088 101.784 13.36C102.04 13.632 102.288 13.916 102.528 14.212C102.776 14.5 103.012 14.8 103.236 15.112C103.46 15.416 103.656 15.712 103.824 16H102.576C102.408 15.736 102.212 15.46 101.988 15.172C101.772 14.876 101.544 14.592 101.304 14.32C101.072 14.048 100.836 13.796 100.596 13.564C100.364 13.324 100.148 13.128 99.9479 12.976V16H98.8799V12.976C98.6799 13.128 98.4599 13.324 98.2199 13.564C97.9879 13.796 97.7519 14.048 97.5119 14.32C97.2799 14.592 97.0519 14.876 96.8279 15.172C96.6119 15.46 96.4199 15.736 96.2519 16H95.0159C95.1839 15.712 95.3759 15.416 95.5919 15.112C95.8159 14.808 96.0479 14.512 96.2879 14.224C96.5359 13.928 96.7879 13.644 97.0439 13.372C97.2999 13.1 97.5479 12.848 97.7879 12.616C97.5879 12.392 97.3759 12.156 97.1519 11.908C96.9359 11.66 96.7199 11.412 96.5039 11.164C96.2879 10.908 96.0799 10.664 95.8799 10.432C95.6799 10.192 95.4959 9.968 95.3279 9.76H96.5639C96.8519 10.12 97.1839 10.52 97.5599 10.96C97.9359 11.4 98.3759 11.908 98.8799 12.484V9.76H99.9479V12.484C100.452 11.908 100.892 11.4 101.268 10.96C101.644 10.52 101.976 10.12 102.264 9.76H103.488ZM109.352 9.76V10.696H107.324V16H106.208V10.696H104.18V9.76H109.352ZM110.155 12.892C110.155 12.34 110.235 11.86 110.395 11.452C110.555 11.036 110.767 10.692 111.031 10.42C111.295 10.148 111.599 9.944 111.943 9.808C112.287 9.672 112.639 9.604 112.999 9.604C113.839 9.604 114.483 9.868 114.931 10.396C115.379 10.916 115.603 11.712 115.603 12.784C115.603 12.832 115.603 12.896 115.603 12.976C115.603 13.048 115.599 13.116 115.591 13.18H111.319C111.367 13.828 111.555 14.32 111.883 14.656C112.211 14.992 112.723 15.16 113.419 15.16C113.811 15.16 114.139 15.128 114.403 15.064C114.675 14.992 114.879 14.924 115.015 14.86L115.171 15.796C115.035 15.868 114.795 15.944 114.451 16.024C114.115 16.104 113.731 16.144 113.299 16.144C112.755 16.144 112.283 16.064 111.883 15.904C111.491 15.736 111.167 15.508 110.911 15.22C110.655 14.932 110.463 14.592 110.335 14.2C110.215 13.8 110.155 13.364 110.155 12.892ZM114.439 12.28C114.447 11.776 114.319 11.364 114.055 11.044C113.799 10.716 113.443 10.552 112.987 10.552C112.731 10.552 112.503 10.604 112.303 10.708C112.111 10.804 111.947 10.932 111.811 11.092C111.675 11.252 111.567 11.436 111.487 11.644C111.415 11.852 111.367 12.064 111.343 12.28H114.439ZM121.567 9.604C121.927 9.604 122.263 9.64 122.575 9.712C122.887 9.784 123.155 9.892 123.379 10.036C123.603 10.18 123.779 10.36 123.907 10.576C124.035 10.792 124.099 11.044 124.099 11.332C124.099 11.516 124.067 11.684 124.003 11.836C123.939 11.988 123.859 12.124 123.763 12.244C123.667 12.364 123.559 12.468 123.439 12.556C123.327 12.636 123.219 12.692 123.115 12.724C123.483 12.836 123.771 13.036 123.979 13.324C124.195 13.604 124.303 13.96 124.303 14.392C124.303 14.984 124.063 15.424 123.583 15.712C123.103 16 122.451 16.144 121.627 16.144C121.123 16.144 120.687 16.104 120.319 16.024C119.959 15.944 119.703 15.868 119.551 15.796L119.743 14.848C119.871 14.896 120.099 14.964 120.427 15.052C120.763 15.132 121.163 15.172 121.627 15.172C122.131 15.172 122.515 15.096 122.779 14.944C123.043 14.784 123.175 14.548 123.175 14.236C123.175 14.012 123.123 13.832 123.019 13.696C122.923 13.552 122.799 13.444 122.647 13.372C122.495 13.3 122.331 13.252 122.155 13.228C121.979 13.204 121.815 13.192 121.663 13.192H120.619V12.304H121.627C121.771 12.304 121.919 12.296 122.071 12.28C122.231 12.256 122.375 12.212 122.503 12.148C122.639 12.084 122.751 11.996 122.839 11.884C122.927 11.764 122.971 11.608 122.971 11.416C122.971 11.264 122.931 11.136 122.851 11.032C122.779 10.92 122.679 10.828 122.551 10.756C122.423 10.684 122.271 10.632 122.095 10.6C121.927 10.56 121.751 10.54 121.567 10.54C121.423 10.54 121.267 10.552 121.099 10.576C120.931 10.6 120.767 10.632 120.607 10.672C120.447 10.704 120.303 10.74 120.175 10.78C120.047 10.82 119.955 10.856 119.899 10.888L119.695 9.928C119.759 9.904 119.859 9.872 119.995 9.832C120.131 9.792 120.283 9.756 120.451 9.724C120.627 9.692 120.811 9.664 121.003 9.64C121.195 9.616 121.383 9.604 121.567 9.604Z" fill="#111111"/>
<path d="M55.928 38.344C58.36 38.344 59.576 37.512 59.576 35.848C59.576 35.336 59.464 34.904 59.24 34.552C59.032 34.184 58.744 33.872 58.376 33.616C58.008 33.344 57.584 33.112 57.104 32.92C56.64 32.728 56.144 32.536 55.616 32.344C55.008 32.136 54.432 31.904 53.888 31.648C53.344 31.376 52.872 31.064 52.472 30.712C52.072 30.344 51.752 29.912 51.512 29.416C51.288 28.92 51.176 28.32 51.176 27.616C51.176 26.16 51.672 25.024 52.664 24.208C53.656 23.392 55.024 22.984 56.768 22.984C57.776 22.984 58.688 23.096 59.504 23.32C60.336 23.528 60.944 23.76 61.328 24.016L60.584 25.912C60.248 25.704 59.744 25.504 59.072 25.312C58.416 25.104 57.648 25 56.768 25C56.32 25 55.904 25.048 55.52 25.144C55.136 25.24 54.8 25.384 54.512 25.576C54.224 25.768 53.992 26.016 53.816 26.32C53.656 26.608 53.576 26.952 53.576 27.352C53.576 27.8 53.664 28.176 53.84 28.48C54.016 28.784 54.264 29.056 54.584 29.296C54.904 29.52 55.272 29.728 55.688 29.92C56.12 30.112 56.592 30.304 57.104 30.496C57.824 30.784 58.48 31.072 59.072 31.36C59.68 31.648 60.2 31.992 60.632 32.392C61.08 32.792 61.424 33.272 61.664 33.832C61.904 34.376 62.024 35.04 62.024 35.824C62.024 37.28 61.488 38.4 60.416 39.184C59.36 39.968 57.864 40.36 55.928 40.36C55.272 40.36 54.664 40.312 54.104 40.216C53.56 40.136 53.072 40.04 52.64 39.928C52.208 39.8 51.832 39.672 51.512 39.544C51.208 39.4 50.968 39.28 50.792 39.184L51.488 37.264C51.856 37.472 52.416 37.704 53.168 37.96C53.92 38.216 54.84 38.344 55.928 38.344ZM64.6934 27.88C65.2054 27.752 65.8854 27.616 66.7334 27.472C67.5814 27.328 68.5574 27.256 69.6614 27.256C70.6534 27.256 71.4774 27.4 72.1334 27.688C72.7894 27.96 73.3094 28.352 73.6934 28.864C74.0934 29.36 74.3734 29.96 74.5334 30.664C74.6934 31.368 74.7734 32.144 74.7734 32.992V40H72.5414V33.472C72.5414 32.704 72.4854 32.048 72.3734 31.504C72.2774 30.96 72.1094 30.52 71.8694 30.184C71.6294 29.848 71.3094 29.608 70.9094 29.464C70.5094 29.304 70.0134 29.224 69.4214 29.224C69.1814 29.224 68.9334 29.232 68.6774 29.248C68.4214 29.264 68.1734 29.288 67.9334 29.32C67.7094 29.336 67.5014 29.36 67.3094 29.392C67.1334 29.424 67.0054 29.448 66.9254 29.464V40H64.6934V27.88ZM82.6987 38.392C83.2267 38.392 83.6907 38.384 84.0907 38.368C84.5067 38.336 84.8507 38.288 85.1227 38.224V34.504C84.9627 34.424 84.6987 34.36 84.3307 34.312C83.9787 34.248 83.5467 34.216 83.0347 34.216C82.6987 34.216 82.3387 34.24 81.9547 34.288C81.5867 34.336 81.2427 34.44 80.9227 34.6C80.6187 34.744 80.3627 34.952 80.1547 35.224C79.9467 35.48 79.8427 35.824 79.8427 36.256C79.8427 37.056 80.0987 37.616 80.6107 37.936C81.1227 38.24 81.8187 38.392 82.6987 38.392ZM82.5067 27.208C83.4027 27.208 84.1547 27.328 84.7627 27.568C85.3867 27.792 85.8827 28.12 86.2507 28.552C86.6347 28.968 86.9067 29.472 87.0667 30.064C87.2267 30.64 87.3067 31.28 87.3067 31.984V39.784C87.1147 39.816 86.8427 39.864 86.4907 39.928C86.1547 39.976 85.7707 40.024 85.3387 40.072C84.9067 40.12 84.4347 40.16 83.9227 40.192C83.4267 40.24 82.9307 40.264 82.4347 40.264C81.7307 40.264 81.0827 40.192 80.4907 40.048C79.8987 39.904 79.3867 39.68 78.9547 39.376C78.5227 39.056 78.1867 38.64 77.9467 38.128C77.7067 37.616 77.5867 37 77.5867 36.28C77.5867 35.592 77.7227 35 77.9947 34.504C78.2827 34.008 78.6667 33.608 79.1467 33.304C79.6267 33 80.1867 32.776 80.8267 32.632C81.4667 32.488 82.1387 32.416 82.8427 32.416C83.0667 32.416 83.2987 32.432 83.5387 32.464C83.7787 32.48 84.0027 32.512 84.2107 32.56C84.4347 32.592 84.6267 32.624 84.7867 32.656C84.9467 32.688 85.0587 32.712 85.1227 32.728V32.104C85.1227 31.736 85.0827 31.376 85.0027 31.024C84.9227 30.656 84.7787 30.336 84.5707 30.064C84.3627 29.776 84.0747 29.552 83.7067 29.392C83.3547 29.216 82.8907 29.128 82.3147 29.128C81.5787 29.128 80.9307 29.184 80.3707 29.296C79.8267 29.392 79.4187 29.496 79.1467 29.608L78.8827 27.76C79.1707 27.632 79.6507 27.512 80.3227 27.4C80.9947 27.272 81.7227 27.208 82.5067 27.208ZM99.6778 33.784C99.6778 32.328 99.3178 31.208 98.5978 30.424C97.8778 29.64 96.9178 29.248 95.7178 29.248C95.0458 29.248 94.5178 29.272 94.1338 29.32C93.7658 29.368 93.4698 29.424 93.2458 29.488V37.36C93.5178 37.584 93.9098 37.8 94.4218 38.008C94.9338 38.216 95.4938 38.32 96.1018 38.32C96.7418 38.32 97.2858 38.208 97.7338 37.984C98.1978 37.744 98.5738 37.424 98.8618 37.024C99.1498 36.608 99.3578 36.128 99.4858 35.584C99.6138 35.024 99.6778 34.424 99.6778 33.784ZM102.006 33.784C102.006 34.728 101.878 35.6 101.622 36.4C101.382 37.2 101.022 37.888 100.542 38.464C100.062 39.04 99.4698 39.488 98.7658 39.808C98.0778 40.128 97.2858 40.288 96.3898 40.288C95.6698 40.288 95.0298 40.192 94.4698 40C93.9258 39.808 93.5178 39.624 93.2458 39.448V44.44H91.0138V27.904C91.5418 27.776 92.1978 27.64 92.9818 27.496C93.7818 27.336 94.7018 27.256 95.7418 27.256C96.7018 27.256 97.5658 27.408 98.3338 27.712C99.1018 28.016 99.7578 28.448 100.302 29.008C100.846 29.568 101.262 30.256 101.55 31.072C101.854 31.872 102.006 32.776 102.006 33.784ZM114.709 38.344C117.141 38.344 118.357 37.512 118.357 35.848C118.357 35.336 118.245 34.904 118.021 34.552C117.813 34.184 117.525 33.872 117.157 33.616C116.789 33.344 116.365 33.112 115.885 32.92C115.421 32.728 114.925 32.536 114.397 32.344C113.789 32.136 113.213 31.904 112.669 31.648C112.125 31.376 111.653 31.064 111.253 30.712C110.853 30.344 110.533 29.912 110.293 29.416C110.069 28.92 109.957 28.32 109.957 27.616C109.957 26.16 110.453 25.024 111.445 24.208C112.437 23.392 113.805 22.984 115.549 22.984C116.557 22.984 117.469 23.096 118.285 23.32C119.117 23.528 119.725 23.76 120.109 24.016L119.365 25.912C119.029 25.704 118.525 25.504 117.853 25.312C117.197 25.104 116.429 25 115.549 25C115.101 25 114.685 25.048 114.301 25.144C113.917 25.24 113.581 25.384 113.293 25.576C113.005 25.768 112.773 26.016 112.597 26.32C112.437 26.608 112.357 26.952 112.357 27.352C112.357 27.8 112.445 28.176 112.621 28.48C112.797 28.784 113.045 29.056 113.365 29.296C113.685 29.52 114.053 29.728 114.469 29.92C114.901 30.112 115.373 30.304 115.885 30.496C116.605 30.784 117.261 31.072 117.853 31.36C118.461 31.648 118.981 31.992 119.413 32.392C119.861 32.792 120.205 33.272 120.445 33.832C120.685 34.376 120.805 35.04 120.805 35.824C120.805 37.28 120.269 38.4 119.197 39.184C118.141 39.968 116.645 40.36 114.709 40.36C114.053 40.36 113.445 40.312 112.885 40.216C112.341 40.136 111.853 40.04 111.421 39.928C110.989 39.8 110.613 39.672 110.293 39.544C109.989 39.4 109.749 39.28 109.573 39.184L110.269 37.264C110.637 37.472 111.197 37.704 111.949 37.96C112.701 38.216 113.621 38.344 114.709 38.344ZM125.563 27.52H130.291V29.392H125.563V35.152C125.563 35.776 125.611 36.296 125.707 36.712C125.803 37.112 125.947 37.432 126.139 37.672C126.331 37.896 126.571 38.056 126.859 38.152C127.147 38.248 127.483 38.296 127.867 38.296C128.539 38.296 129.075 38.224 129.475 38.08C129.891 37.92 130.179 37.808 130.339 37.744L130.771 39.592C130.547 39.704 130.155 39.84 129.595 40C129.035 40.176 128.395 40.264 127.675 40.264C126.827 40.264 126.123 40.16 125.563 39.952C125.019 39.728 124.579 39.4 124.243 38.968C123.907 38.536 123.667 38.008 123.523 37.384C123.395 36.744 123.331 36.008 123.331 35.176V24.04L125.563 23.656V27.52ZM143.819 33.76C143.819 34.752 143.675 35.648 143.387 36.448C143.099 37.248 142.691 37.936 142.163 38.512C141.651 39.088 141.035 39.536 140.315 39.856C139.595 40.16 138.811 40.312 137.963 40.312C137.115 40.312 136.331 40.16 135.611 39.856C134.891 39.536 134.267 39.088 133.739 38.512C133.227 37.936 132.827 37.248 132.539 36.448C132.251 35.648 132.107 34.752 132.107 33.76C132.107 32.784 132.251 31.896 132.539 31.096C132.827 30.28 133.227 29.584 133.739 29.008C134.267 28.432 134.891 27.992 135.611 27.688C136.331 27.368 137.115 27.208 137.963 27.208C138.811 27.208 139.595 27.368 140.315 27.688C141.035 27.992 141.651 28.432 142.163 29.008C142.691 29.584 143.099 30.28 143.387 31.096C143.675 31.896 143.819 32.784 143.819 33.76ZM141.491 33.76C141.491 32.352 141.171 31.24 140.531 30.424C139.907 29.592 139.051 29.176 137.963 29.176C136.875 29.176 136.011 29.592 135.371 30.424C134.747 31.24 134.435 32.352 134.435 33.76C134.435 35.168 134.747 36.288 135.371 37.12C136.011 37.936 136.875 38.344 137.963 38.344C139.051 38.344 139.907 37.936 140.531 37.12C141.171 36.288 141.491 35.168 141.491 33.76ZM151.567 27.256C151.759 27.256 151.975 27.272 152.215 27.304C152.471 27.32 152.719 27.352 152.959 27.4C153.199 27.432 153.415 27.472 153.607 27.52C153.815 27.552 153.967 27.584 154.063 27.616L153.679 29.56C153.503 29.496 153.207 29.424 152.791 29.344C152.391 29.248 151.871 29.2 151.231 29.2C150.815 29.2 150.399 29.248 149.983 29.344C149.583 29.424 149.319 29.48 149.191 29.512V40H146.959V28.048C147.487 27.856 148.143 27.68 148.927 27.52C149.711 27.344 150.591 27.256 151.567 27.256ZM155.521 33.784C155.521 32.68 155.681 31.72 156.001 30.904C156.321 30.072 156.745 29.384 157.273 28.84C157.801 28.296 158.409 27.888 159.097 27.616C159.785 27.344 160.489 27.208 161.209 27.208C162.889 27.208 164.177 27.736 165.073 28.792C165.969 29.832 166.417 31.424 166.417 33.568C166.417 33.664 166.417 33.792 166.417 33.952C166.417 34.096 166.409 34.232 166.393 34.36H157.849C157.945 35.656 158.321 36.64 158.977 37.312C159.633 37.984 160.657 38.32 162.049 38.32C162.833 38.32 163.489 38.256 164.017 38.128C164.561 37.984 164.969 37.848 165.241 37.72L165.553 39.592C165.281 39.736 164.801 39.888 164.113 40.048C163.441 40.208 162.673 40.288 161.809 40.288C160.721 40.288 159.777 40.128 158.977 39.808C158.193 39.472 157.545 39.016 157.033 38.44C156.521 37.864 156.137 37.184 155.881 36.4C155.641 35.6 155.521 34.728 155.521 33.784ZM164.089 32.56C164.105 31.552 163.849 30.728 163.321 30.088C162.809 29.432 162.097 29.104 161.185 29.104C160.673 29.104 160.217 29.208 159.817 29.416C159.433 29.608 159.105 29.864 158.833 30.184C158.561 30.504 158.345 30.872 158.185 31.288C158.041 31.704 157.945 32.128 157.897 32.56H164.089Z" fill="#111111"/>
</svg>
